<?xml version="1.0" encoding="utf-8"?>
<!-- Generator: Adobe Illustrator 19.1.0, SVG Export Plug-In . SVG Version: 6.00 Build 0)  -->
<svg version="1.1" xmlns="http://www.w3.org/2000/svg" xmlns:xlink="http://www.w3.org/1999/xlink" x="0px" y="0px"
	 viewBox="0 0 650 650" style="enable-background:new 0 0 650 650;" xml:space="preserve">
<g id="Layer_1">
</g>
<g id="Layer_2">
	<path d="M564.47461,513.22919L374.95468,302.173l170.99118-170.82301h-72.52573L313.99417,297.87195V131.34999h0.0817h-52.79538
		h-0.14337l0.57596-0.12761v263.9162c0,2.82153-0.30713,6.34509-0.48059,10.56351c-0.18216,4.21844-0.63776,8.7099-1.16684,13.45795
		c-0.52963,4.74805-1.46893,9.49606-2.70111,14.2431c-1.24091,4.74805-2.93889,9.0578-5.05632,12.92932
		c-5.64972,9.14816-13.16557,15.92227-22.51233,20.32339c-9.35495,4.40012-19.51109,6.59247-30.44617,6.59247
		c-13.41687,0-24.18135-2.64706-32.29593-7.94113c-8.12279-5.29407-13.76599-10.40546-16.94212-15.35159
		c-3.88742-5.99716-6.17967-12.522-6.88274-20.11517c-0.71129-7.58499-1.24174-15.11182-1.58917-21.1734H85.52539
		c0,3.03079,0.17346,8.29434,0.5291,13.76187c0.34743,5.47577,1.14134,11.16611,2.38223,17.3367
		c1.23269,6.17883,3.0853,12.55579,5.55837,19.25598c2.46537,6.70844,5.99715,13.06845,10.58816,19.1405
		c6.69971,9.03217,14.20205,16.15399,22.49881,21.38956c8.28804,5.24481,16.67563,9.29788,25.14534,12.18408
		c8.47021,2.88721,16.58479,4.77673,24.35194,5.68713c7.75893,0.90112,14.11121,1.3548,19.05786,1.3548
		c15.88121,0,30.96902-2.3833,45.26242-7.14777s26.81628-11.73001,37.58612-20.91202
		c10.76111-9.17279,19.29276-20.46429,25.82721-33.88013c6.52625-13.40866,9.68121-28.935,9.68121-46.5867v-99.88879
		L490.3606,513.22919H564.47461z"/>
</g>
</svg>
