<?xml version="1.0" encoding="utf-8"?>
<!-- Generator: Adobe Illustrator 19.1.0, SVG Export Plug-In . SVG Version: 6.00 Build 0)  -->
<svg version="1.1" id="Layer_2" xmlns="http://www.w3.org/2000/svg" xmlns:xlink="http://www.w3.org/1999/xlink" x="0px" y="0px"
	 viewBox="0 0 650 650" style="enable-background:new 0 0 650 650;" xml:space="preserve">
<g>
	<polygon points="284.84,304.48 285.22,304.92 285.22,304.08 	"/>
	<path d="M285.22,395.19c0,2.81-0.18,6.33-0.35,10.54c-0.18,4.21-0.57,8.69-1.1,13.42s-1.43,9.47-2.66,14.2
		c-1.24,4.74-2.91,9.03-5.03,12.89c-5.64,9.12-13.12,15.88-22.44,20.27c-9.33,4.39-19.45,6.57-30.36,6.57
		c-13.38,0-24.12-2.64-32.21-7.92c-8.1-5.28-13.73-10.38-16.9-15.31c-3.88-5.98-6.16-12.72-6.86-20.29
		c-0.71-7.56-1.24-15.06-1.58-21.35h-55.96c0,4.19,0.17,8.5,0.53,13.96c0.35,5.46,1.14,11.25,2.38,17.41
		c1.23,6.16,3.08,12.58,5.54,19.26c2.46,6.69,5.98,13.06,10.56,19.12c6.68,9.01,14.16,16.13,22.44,21.35
		c8.27,5.23,16.63,9.28,25.08,12.16c8.45,2.88,16.54,4.77,24.29,5.68c7.74,0.9,14.07,1.35,19.01,1.35c15.84,0,30.89-2.38,45.14-7.13
		c14.26-4.75,26.74-11.7,37.49-20.86c10.73-9.15,19.25-20.41,25.76-33.79c6.51-13.37,9.66-28.86,9.66-46.46v-45.06l-52.41-60.29
		V395.19z"/>
	<polygon points="337.63,131.5 285.22,131.5 285.22,304.08 337.63,249.02 	"/>
	<polygon points="351.22,302.21 521.76,131.5 449.43,131.5 337.63,249.02 337.63,365.21 466.32,513.04 540.24,513.04 	"/>
</g>
</svg>
